<?xml version="1.0"?>
<svg xmlns="http://www.w3.org/2000/svg" xmlns:xlink="http://www.w3.org/1999/xlink" version="1.1" id="Capa_1" x="0px" y="0px" viewBox="0 0 512 512" style="enable-background:new 0 0 512 512;" xml:space="preserve" width="512px" height="512px" class=""><g><circle style="fill:#71E2F0" cx="256" cy="256" r="256" data-original="#FEE17A" class="" data-old_color="#FEE17A"/><path style="fill:#38C6D9" d="M512,256c0-8.517-0.426-16.935-1.239-25.239L418,138l-21.532,32.218L319.75,93.5l-120.917,8.833  V259.42L94,374l136.761,136.761C239.065,511.574,247.483,512,256,512C397.385,512,512,397.385,512,256z" data-original="#FCC55F" class="active-path" data-old_color="#FCC55F"/><path style="fill:#4E342E;" d="M319.75,171.5h-127.5v-78h127.5V171.5z M212.25,151.5h87.5v-38h-87.5V151.5z" data-original="#4E342E" class=""/><polygon style="fill:#3E2723;" points="319.75,93.5 255.952,93.5 255.952,113.5 299.75,113.5 299.75,151.5 255.952,151.5   255.952,171.5 319.75,171.5 " data-original="#3E2723" class=""/><rect x="94" y="138" style="fill:#795548;" width="324" height="236" data-original="#795548" class=""/><g>
	<rect x="255.95" y="138" style="fill:#6D4C41;" width="162.05" height="236" data-original="#6D4C41" class=""/>
	<rect x="94" y="138" style="fill:#6D4C41;" width="324" height="92.33" data-original="#6D4C41" class=""/>
</g><rect x="255.95" y="138" style="fill:#5D4037" width="162.05" height="92.33" data-original="#5D4037" class="" data-old_color="#5D4037"/><rect x="140.25" y="207" style="fill:#4E342E;" width="44" height="46" data-original="#4E342E" class=""/><rect x="327.75" y="207" style="fill:#3E2723;" width="44" height="46" data-original="#3E2723" class=""/></g> </svg>
