<?xml version="1.0" standalone="no"?>
<!DOCTYPE svg PUBLIC "-//W3C//DTD SVG 20010904//EN"
 "http://www.w3.org/TR/2001/REC-SVG-20010904/DTD/svg10.dtd">
<svg version="1.0" xmlns="http://www.w3.org/2000/svg"
 width="170.000000pt" height="170.000000pt" viewBox="0 0 170.000000 170.000000"
 preserveAspectRatio="xMidYMid meet">
<metadata>
Created by potrace 1.11, written by Peter Selinger 2001-2013
</metadata>
<g transform="translate(0.000000,170.000000) scale(0.100000,-0.100000)"
fill="#000000" stroke="none">
<path d="M1129 1686 c10 -12 9 -14 -8 -9 -12 3 -21 1 -21 -5 0 -12 -18 -11
-39 2 -11 7 -13 5 -7 -9 6 -18 6 -18 -11 -2 -12 10 -23 13 -32 7 -8 -4 -21 -6
-29 -2 -9 3 -13 1 -9 -5 7 -11 -22 -11 -40 0 -6 4 -14 3 -18 -3 -3 -5 -11 -10
-16 -10 -6 0 -8 4 -5 9 7 10 -13 9 -31 -2 -6 -4 -14 -1 -16 5 -4 10 -6 10 -6
1 -1 -7 -6 -13 -12 -13 -5 0 -7 6 -3 13 5 7 1 7 -10 -2 -15 -13 -19 -13 -27 0
-5 8 -9 9 -9 3 0 -14 -30 -14 -30 0 0 7 -3 7 -8 1 -9 -13 -42 -16 -42 -3 0 5
-5 6 -10 3 -6 -4 -8 -11 -5 -16 4 -5 -5 -5 -20 1 -34 13 -38 13 -29 -2 5 -8 2
-9 -10 -5 -10 4 -19 1 -22 -7 -3 -8 -13 -17 -21 -20 -14 -6 -14 -4 -2 11 13
16 12 17 -3 4 -10 -7 -18 -21 -18 -30 0 -14 -2 -14 -10 -1 -8 13 -10 12 -10
-2 0 -10 -5 -18 -11 -18 -5 0 -7 -4 -4 -10 3 -5 1 -10 -4 -10 -16 0 -50 -37
-43 -46 4 -5 -1 -2 -11 5 -15 12 -17 12 -11 -3 4 -10 1 -16 -7 -16 -7 0 -9 -3
-6 -7 4 -3 1 -13 -6 -21 -10 -13 -9 -14 2 -8 9 6 12 5 9 -5 -3 -8 -11 -13 -17
-11 -6 1 -11 -2 -11 -8 0 -5 6 -10 13 -10 8 0 7 -4 -3 -10 -11 -7 -11 -10 -2
-10 7 0 11 -4 8 -9 -3 -5 1 -12 10 -15 8 -3 13 -10 9 -15 -3 -6 11 -9 35 -7
35 3 39 1 28 -12 -8 -10 -9 -13 -2 -9 7 4 17 0 24 -8 11 -13 10 -14 -6 -9 -18
7 -18 6 -2 -12 17 -19 17 -21 0 -38 -16 -16 -16 -17 2 -10 14 5 17 3 14 -7 -3
-8 -11 -13 -18 -11 -11 2 -11 0 -2 -11 7 -8 9 -23 5 -32 -4 -13 -3 -16 6 -10
10 6 11 3 1 -15 -10 -18 -9 -24 1 -31 9 -6 10 -9 2 -9 -12 0 -12 -24 0 -36 4
-4 0 -15 -9 -25 -12 -13 -12 -19 -3 -25 8 -4 10 -3 5 4 -4 7 -2 12 3 12 14 0
14 -17 0 -26 -8 -4 -7 -9 2 -15 8 -5 9 -9 4 -9 -6 0 -11 -9 -12 -20 -1 -13 2
-18 10 -14 8 5 8 3 0 -7 -16 -16 -17 -33 -2 -23 8 5 8 1 0 -13 -7 -15 -7 -23
2 -32 7 -7 8 -12 2 -11 -22 5 -29 -1 -15 -10 12 -8 12 -10 1 -10 -10 0 -11 -3
-2 -14 9 -11 9 -16 0 -22 -8 -5 -9 -3 -4 6 5 9 4 11 -4 6 -7 -4 -10 -13 -8
-19 2 -7 -12 -27 -32 -45 -20 -19 -30 -30 -22 -26 10 5 12 3 7 -5 -9 -14 1
-64 12 -57 4 2 16 -8 27 -23 12 -16 14 -22 4 -16 -8 6 -6 2 4 -7 11 -10 15
-18 11 -18 -5 0 -3 -4 5 -9 10 -6 11 -13 2 -29 -8 -15 -8 -23 1 -28 7 -5 8 -3
3 6 -5 9 -4 11 4 6 9 -6 9 -11 0 -22 -9 -11 -8 -14 2 -14 9 0 10 -3 4 -8 -16
-11 -19 -45 -3 -37 10 6 11 5 0 -6 -14 -15 -17 -33 -4 -25 5 3 9 -1 9 -9 0 -8
-4 -12 -9 -9 -4 3 -8 -2 -8 -10 0 -9 6 -16 13 -16 8 0 8 -3 2 -8 -12 -8 -13
-27 -2 -38 4 -4 0 -15 -9 -25 -12 -13 -12 -19 -3 -25 8 -4 10 -3 5 4 -4 7 -2
12 3 12 15 0 14 -15 -3 -29 -7 -6 -11 -22 -8 -36 3 -17 0 -25 -9 -26 -8 0 -5
-4 6 -9 13 -6 15 -9 5 -9 -13 -1 -13 -2 0 -11 13 -8 13 -11 1 -22 -11 -11 -13
-11 -6 1 6 10 4 12 -4 7 -9 -6 -8 -12 4 -26 12 -14 13 -20 4 -26 -8 -5 -10 -3
-4 6 5 9 4 11 -4 6 -9 -6 -9 -11 1 -24 11 -13 11 -14 0 -8 -9 5 -15 1 -19 -13
-3 -12 -10 -21 -15 -21 -5 0 -6 6 -2 13 4 6 3 8 -1 4 -14 -12 -15 -68 -2 -60
7 4 5 -2 -3 -12 -9 -11 -10 -16 -2 -11 7 4 12 1 12 -8 0 -29 38 -36 202 -36
117 0 168 4 177 12 11 11 13 10 7 -2 -4 -8 4 -3 18 12 14 16 29 28 35 28 5 0
13 5 17 12 5 7 2 9 -7 4 -8 -4 -2 2 13 14 18 14 25 27 21 37 -4 10 -2 14 4 10
5 -3 10 0 10 8 0 8 -4 15 -9 15 -4 0 -8 5 -8 11 0 5 5 7 12 3 7 -5 8 -3 2 7
-5 8 -9 17 -10 22 -1 4 -2 10 -3 13 0 4 -9 0 -18 -7 -15 -12 -16 -12 -10 3 4
12 2 15 -9 11 -12 -4 -13 -1 -5 19 7 19 6 29 -6 40 -12 12 -12 17 -2 23 8 5
10 4 5 -3 -10 -17 -1 -15 13 2 9 11 9 16 0 22 -8 5 -10 3 -4 -7 5 -8 4 -11 -1
-6 -12 12 -12 30 1 39 5 4 1 8 -10 8 -12 0 -16 3 -9 8 6 4 13 17 17 30 4 19 3
21 -9 11 -12 -10 -12 -6 0 23 13 31 13 38 0 56 -14 20 -13 21 3 15 17 -6 17
-5 0 14 -14 16 -15 23 -6 29 8 5 10 3 4 -7 -8 -12 -6 -12 8 0 9 7 14 17 11 22
-8 14 -16 11 -8 -3 4 -8 3 -10 -2 -5 -12 12 -12 30 1 39 5 4 1 8 -10 8 -15 0
-17 2 -6 9 7 5 12 13 9 17 -2 5 6 19 19 31 21 21 28 21 24 0 -1 -5 9 -6 21 -2
15 4 18 3 10 -3 -10 -6 -8 -14 8 -32 19 -21 24 -20 21 5 -1 6 4 3 11 -5 14
-17 23 -18 50 -6 10 5 15 12 12 17 -3 5 3 6 12 2 14 -5 16 -3 11 12 -7 16 -5
16 10 4 9 -8 14 -9 10 -3 -3 6 3 16 13 24 10 8 16 18 13 24 -4 5 1 7 11 3 14
-6 17 -3 12 9 -4 11 -2 15 8 11 11 -4 13 -1 9 10 -5 12 -2 15 10 10 11 -4 14
-2 10 9 -3 8 0 21 6 28 9 11 9 16 0 22 -8 5 -9 3 -4 -6 6 -9 4 -11 -5 -5 -10
6 -9 11 5 22 18 13 18 13 -1 14 -10 0 -13 3 -6 6 6 2 12 9 12 14 0 6 -5 7 -11
4 -16 -10 -7 28 11 43 8 8 9 11 3 7 -7 -3 -13 -2 -13 2 0 5 6 15 13 22 6 7 8
12 2 11 -21 -5 -29 1 -15 10 13 8 13 11 1 22 -11 11 -13 11 -6 -1 6 -10 4 -12
-4 -7 -9 6 -9 11 1 24 10 12 10 14 1 8 -9 -5 -13 -1 -13 10 0 10 -3 14 -7 11
-3 -4 -12 1 -19 11 -9 11 -13 13 -14 4 0 -7 -5 -10 -10 -7 -6 4 -7 12 -3 18 4
7 -2 5 -12 -3 -10 -8 -16 -10 -12 -3 5 8 1 11 -12 10 -11 0 -17 -5 -15 -9 3
-4 -4 -8 -14 -8 -16 0 -19 -5 -15 -22 4 -19 3 -20 -6 -8 -8 11 -11 12 -11 2 0
-7 -4 -11 -9 -8 -5 4 -12 0 -14 -6 -4 -10 -6 -9 -6 1 -1 10 -4 11 -15 2 -11
-9 -16 -9 -22 0 -5 8 -3 9 6 4 9 -6 11 -4 6 4 -6 9 -12 9 -25 -3 -10 -9 -22
-16 -27 -16 -5 0 -2 5 6 10 9 6 10 10 3 10 -7 0 -17 -8 -23 -17 -7 -12 -10
-13 -7 -3 2 8 -2 22 -10 32 -11 12 -11 18 -2 24 8 4 10 3 5 -4 -5 -8 -1 -10 9
-5 9 3 13 9 8 12 -12 7 -26 44 -15 37 13 -8 5 53 -8 70 -11 12 -10 13 6 8 18
-7 18 -7 1 13 -14 16 -15 23 -6 29 8 5 10 3 4 -7 -8 -12 -6 -12 8 0 9 7 14 17
11 22 -8 14 -16 11 -8 -3 4 -8 3 -10 -2 -5 -12 12 -12 30 1 39 5 4 1 8 -10 8
-12 0 -16 3 -9 8 6 4 13 17 17 30 4 18 3 21 -7 13 -10 -8 -12 -5 -10 12 1 12
3 26 3 31 1 5 4 7 7 3 9 -8 33 16 27 28 -2 6 3 1 11 -9 9 -11 16 -15 16 -10 0
5 9 10 20 11 13 1 18 -2 14 -10 -5 -8 -3 -8 7 1 7 6 18 12 23 12 6 0 4 -5 -4
-10 -10 -6 -11 -10 -2 -10 6 0 12 -6 12 -14 0 -8 5 -18 12 -22 7 -4 8 -3 4 4
-4 7 -3 12 2 12 6 0 12 -7 16 -15 4 -11 11 -13 30 -6 13 6 27 7 32 3 4 -4 4
-1 0 6 -5 8 -1 12 11 12 21 0 55 35 45 46 -4 4 3 5 15 2 16 -5 20 -2 16 10 -5
12 -2 14 11 9 14 -6 16 -3 11 14 -5 15 -4 19 4 15 6 -4 11 0 11 8 0 9 6 16 13
16 8 0 7 4 -3 10 -8 5 -10 10 -4 10 7 0 11 14 10 30 0 17 -4 30 -9 30 -4 0 -5
6 0 13 10 16 13 38 4 32 -4 -2 -8 2 -8 10 0 8 4 12 8 10 4 -3 6 11 5 31 -2 20
-9 39 -16 44 -7 4 -10 15 -7 25 4 9 3 13 -2 10 -5 -3 -12 -1 -15 3 -3 5 -33
10 -67 11 -54 2 -61 0 -50 -13z m-187 -1038 c-7 -7 -12 -8 -12 -2 0 6 3 14 7
17 3 4 9 5 12 2 2 -3 -1 -11 -7 -17z"/>
</g>
</svg>
